<mxfile host="app.diagrams.net" modified="2024-07-18T05:55:27.896Z" agent="Mozilla/5.0 (Macintosh; Intel Mac OS X 10_15_7) AppleWebKit/605.1.15 (KHTML, like Gecko) Version/17.5 Safari/605.1.15" version="24.7.1" etag="JMxxSPC8mbhfOs-7yZTw" type="github">
  <diagram name="Strona-1" id="cX9BkwC_OuQg0DPI1Xum">
    <mxGraphModel>
      <root>
        <mxCell id="0" />
        <mxCell id="1" parent="0" />
      </root>
    </mxGraphModel>
  </diagram>
</mxfile>
